<svg id="Layer_1" data-name="Layer 1" xmlns="http://www.w3.org/2000/svg" viewBox="0 0 42 42"><title>PGDM-Icon2</title><circle cx="21" cy="21" r="20.5" style="fill:#002855"/><path d="M10,27.28V31.5c0,1,3.88,3,11,3s11-2,11-3V27.28c-2.43,1.46-6.72,2.22-11,2.22S12.43,28.74,10,27.28Z" style="fill:#4b95a6"/><path d="M10,20.28V24.5c0,1,3.88,3,11,3s11-2,11-3V20.28c-2.43,1.46-6.72,2.22-11,2.22S12.43,21.74,10,20.28Z" style="fill:#5bafac"/><path d="M10,13.28V17.5c0,1,3.88,3,11,3s11-2,11-3V13.28c-2.43,1.46-6.72,2.22-11,2.22S12.43,14.74,10,13.28Z" style="fill:#85bb90"/><ellipse cx="21" cy="10.5" rx="11" ry="3" style="fill:#aabf66"/><circle cx="12" cy="16.5" r="1" style="fill:#002855"/><circle cx="12" cy="23.5" r="1" style="fill:#002855"/><circle cx="12" cy="30.5" r="1" style="fill:#002855"/><circle cx="33" cy="33" r="8" style="fill:#daaa00"/><g id="swap-horiz"><path d="M29.66,32.33,27,35l2.66,2.67v-2h4.67V34.33H29.66ZM39,31l-2.66-2.67v2H31.67v1.34h4.67v2Z" style="fill:#002855"/></g></svg>